<svg width="37" height="36" viewBox="0 0 37 36" fill="none" xmlns="http://www.w3.org/2000/svg">
<path d="M33.1909 7.64001C31.8509 4.89001 27.9909 2.64001 23.5009 3.95001C21.3554 4.56975 19.4834 5.89879 18.1909 7.72001C16.8984 5.89879 15.0264 4.56975 12.8809 3.95001C8.38091 2.66001 4.53091 4.89001 3.19091 7.64001C1.31091 11.49 2.09091 15.82 5.51091 20.51C8.19091 24.18 12.0209 27.9 17.5809 32.22C17.7566 32.3571 17.9731 32.4315 18.1959 32.4315C18.4187 32.4315 18.6352 32.3571 18.8109 32.22C24.3609 27.91 28.2009 24.22 30.8809 20.51C34.2909 15.82 35.0709 11.49 33.1909 7.64001V7.64001Z" fill="#F70C0C"/>
</svg>
