<svg width="48" height="48" viewBox="0 0 48 48" fill="none" xmlns="http://www.w3.org/2000/svg">
<path d="M48 24C48 37.2548 37.2548 48 24 48C10.7452 48 0 37.2548 0 24C0 10.7452 10.7452 0 24 0C37.2548 0 48 10.7452 48 24Z" fill="#009A8E"/>
<path d="M6.73366 15.9375H9.54616V28.125H6.73366V15.9375ZM38.4538 15.9375V28.125H41.2663V15.9375H38.4538Z" fill="#FFF2B4"/>
<path d="M12.93 33.1156C14.7932 36.8149 13.9573 40.9957 11.0629 42.4534C8.16854 43.9111 4.31167 42.094 2.44848 38.3945C0.585197 34.6951 1.42117 30.5144 4.3156 29.0566C7.20995 27.5988 11.0668 29.4161 12.93 33.1156ZM42.8456 28.4772C39.7682 27.4613 36.2209 29.8264 34.9224 33.7598C33.6241 37.6932 35.0663 41.7053 38.1437 42.7212C38.364 42.7939 38.5869 42.8474 38.8111 42.8861C42.1513 40.2629 44.7779 36.7724 46.3527 32.7541C45.8991 30.7093 44.6557 29.0746 42.8456 28.4772Z" fill="#FBC56D"/>
<path d="M15.8819 38.9765C16.3478 39.9013 15.9756 41.0287 15.0507 41.4945L14.0066 42.0204C13.3365 42.3579 12.5612 42.2537 12.0071 41.8198C11.7219 42.0655 11.4078 42.2796 11.0628 42.4534C10.8669 42.552 10.6663 42.6344 10.4626 42.7035L5.62388 33.1174C5.31807 32.5116 4.48482 32.4172 4.06032 32.9467C2.82151 34.4921 2.26379 36.5324 2.54092 38.5692C2.51007 38.511 2.47829 38.4536 2.44848 38.3945C0.585197 34.6951 1.42117 30.5143 4.3156 29.0566C4.6606 28.8829 5.01948 28.7566 5.38679 28.6735C5.3686 27.9706 5.74632 27.2863 6.41598 26.949L7.46007 26.4232C8.38492 25.9573 9.51226 26.3295 9.9781 27.2544L15.8819 38.9765ZM40.0802 38.9239L43.4469 28.7245C43.254 28.6293 43.0539 28.5457 42.8456 28.477C42.4788 28.3558 42.1053 28.2835 41.7297 28.2555C41.6441 27.5576 41.1699 26.9365 40.4579 26.7015L39.3478 26.335C38.3645 26.0105 37.3042 26.5445 36.9796 27.5278L32.8655 39.9913C32.5409 40.9747 33.0749 42.035 34.0583 42.3595L35.1684 42.726C35.8804 42.961 36.6313 42.7443 37.1155 42.2344C37.434 42.4354 37.777 42.5999 38.1438 42.7209C38.3641 42.7937 38.587 42.8471 38.8112 42.8859C39.9142 42.0196 40.9384 41.058 41.8736 40.015C41.6119 40.0748 41.3467 40.1199 41.0789 40.1497C40.398 40.2255 39.8654 39.5745 40.0802 38.9239Z" fill="#EBAE56"/>
<path d="M15.8818 38.9766C16.3476 39.9014 15.9754 41.0288 15.0506 41.4946L14.0065 42.0204C13.0816 42.4863 11.9543 42.1141 11.4885 41.1893L6.77584 31.8323C6.30999 30.9075 6.68218 29.7802 7.60702 29.3143L8.65112 28.7885C9.57596 28.3226 10.7033 28.6948 11.1691 29.6197L15.8818 38.9766ZM40.4578 26.7017L39.3477 26.3352C38.3643 26.0107 37.304 26.5447 36.9795 27.528L33.6954 37.4767C33.3708 38.46 33.9048 39.5203 34.8882 39.8449L35.9983 40.2114C36.9816 40.5359 38.0419 40.0019 38.3665 39.0186L41.6506 29.0699C41.9751 28.0866 41.4411 27.0263 40.4578 26.7017Z" fill="#FBC56D"/>
<path d="M42.337 17.1075C41.8962 18.5969 40.3314 19.4471 38.8419 19.0061C37.785 18.6933 37.0507 17.8143 36.8705 16.7981C34.9629 11.5355 29.9212 7.77509 23.9999 7.77509C18.0789 7.77509 13.0372 11.5352 11.1294 16.7975C10.9494 17.814 10.215 18.6933 9.15779 19.0062C7.66838 19.4471 6.1036 18.597 5.6627 17.1076C5.52113 16.6294 5.51335 16.1436 5.61638 15.6896C5.62276 15.565 5.64554 15.4385 5.68782 15.3126C8.2562 7.66184 15.4842 2.15009 23.9999 2.15009C32.4015 2.15009 39.5497 7.51521 42.2062 15.0061C42.2486 15.126 42.2755 15.2465 42.2894 15.3661C42.4828 15.9079 42.5128 16.5136 42.337 17.1075Z" fill="#FBC56D"/>
<path d="M9.70805 15.9101C9.92846 16.6548 9.50349 17.4372 8.75874 17.6576C8.01399 17.878 7.23165 17.453 7.01124 16.7082C6.79083 15.9635 7.2158 15.1812 7.96055 14.9607C8.7053 14.7403 9.48764 15.1654 9.70805 15.9101ZM40.0394 14.9607C39.2946 14.7403 38.5123 15.1653 38.2919 15.9101C38.0715 16.6548 38.4964 17.4372 39.2412 17.6576C39.9859 17.878 40.7683 17.453 40.9887 16.7082C41.2091 15.9636 40.7841 15.1812 40.0394 14.9607Z" fill="#EBAE56"/>
<path d="M24.9374 22.5V32.8125C24.9374 33.3303 24.5177 33.75 23.9999 33.75C23.4821 33.75 23.0624 33.3303 23.0624 32.8125V22.5C23.0624 21.9822 23.4821 21.5625 23.9999 21.5625C24.5177 21.5625 24.9374 21.9822 24.9374 22.5ZM16.4999 23.4375C15.9821 23.4375 15.5624 23.8572 15.5624 24.375V29.0625C15.5624 29.5803 15.9821 30 16.4999 30C17.0177 30 17.4374 29.5803 17.4374 29.0625V24.375C17.4374 23.8572 17.0177 23.4375 16.4999 23.4375ZM20.2499 19.6875C19.7321 19.6875 19.3124 20.1072 19.3124 20.625V29.0625C19.3124 29.5803 19.7321 30 20.2499 30C20.7677 30 21.1874 29.5803 21.1874 29.0625V20.625C21.1874 20.1072 20.7677 19.6875 20.2499 19.6875ZM31.4999 23.4375C30.9821 23.4375 30.5624 23.8572 30.5624 24.375V29.0625C30.5624 29.5803 30.9821 30 31.4999 30C32.0177 30 32.4374 29.5803 32.4374 29.0625V24.375C32.4374 23.8572 32.0177 23.4375 31.4999 23.4375ZM27.7499 18.75C27.2321 18.75 26.8124 19.1697 26.8124 19.6875V28.125C26.8124 28.6428 27.2321 29.0625 27.7499 29.0625C28.2677 29.0625 28.6874 28.6428 28.6874 28.125V19.6875C28.6874 19.1697 28.2677 18.75 27.7499 18.75Z" fill="#5EE2C5"/>
</svg>
