<svg width="25" height="24" viewBox="0 0 25 24" fill="none" xmlns="http://www.w3.org/2000/svg">
<path d="M4.19092 6H2.19092V20C2.19092 20.5304 2.40163 21.0391 2.7767 21.4142C3.15178 21.7893 3.66048 22 4.19092 22H18.1909V20H4.19092V6ZM18.1909 7H15.1909V12.5C15.1909 13.163 14.9275 13.7989 14.4587 14.2678C13.9898 14.7366 13.354 15 12.6909 15C12.0279 15 11.392 14.7366 10.9232 14.2678C10.4543 13.7989 10.1909 13.163 10.1909 12.5C10.1909 11.837 10.4543 11.2011 10.9232 10.7322C11.392 10.2634 12.0279 10 12.6909 10C13.2609 10 13.7709 10.19 14.1909 10.5V5H18.1909V7ZM20.1909 2H8.19092C7.66048 2 7.15178 2.21071 6.7767 2.58579C6.40163 2.96086 6.19092 3.46957 6.19092 4V16C6.19092 16.5304 6.40163 17.0391 6.7767 17.4142C7.15178 17.7893 7.66048 18 8.19092 18H20.1909C20.7214 18 21.2301 17.7893 21.6051 17.4142C21.9802 17.0391 22.1909 16.5304 22.1909 16V4C22.1909 3.46957 21.9802 2.96086 21.6051 2.58579C21.2301 2.21071 20.7214 2 20.1909 2Z" fill="black"/>
</svg>
