<svg width="25" height="24" viewBox="0 0 25 24" fill="none" xmlns="http://www.w3.org/2000/svg">
<path d="M12.2909 18.55L12.1909 18.65L12.0809 18.55C7.33092 14.24 4.19092 11.39 4.19092 8.5C4.19092 6.5 5.69092 5 7.69092 5C9.23092 5 10.7309 6 11.2609 7.36H13.1209C13.6509 6 15.1509 5 16.6909 5C18.6909 5 20.1909 6.5 20.1909 8.5C20.1909 11.39 17.0509 14.24 12.2909 18.55ZM16.6909 3C14.9509 3 13.2809 3.81 12.1909 5.08C11.1009 3.81 9.43092 3 7.69092 3C4.61092 3 2.19092 5.41 2.19092 8.5C2.19092 12.27 5.59092 15.36 10.7409 20.03L12.1909 21.35L13.6409 20.03C18.7909 15.36 22.1909 12.27 22.1909 8.5C22.1909 5.41 19.7709 3 16.6909 3Z" fill="black"/>
</svg>
